<svg width="92" height="37" viewBox="0 0 92 37" fill="none" xmlns="http://www.w3.org/2000/svg">
<path d="M0.849121 17.3071C2.23245 17.0867 3.52519 16.7923 4.98538 16.7923C6.07963 16.7923 7.17388 16.7923 8.26813 16.7923C9.9182 16.7923 11.3743 16.7447 12.9077 17.0211C13.7576 17.1743 14.5548 17.4652 15.4245 17.5588C16.1748 17.6396 16.9391 17.6161 17.7005 17.6161C20.5183 17.6161 22.1655 16.0727 22.1213 14.6871C22.0974 13.9383 21.7916 13.1523 20.2064 13.0339C19.4001 12.9737 17.9934 12.8548 17.241 13.1082C16.2829 13.431 15.4975 14.5054 15.0415 15.0418C14.4317 15.7591 14.626 16.5994 14.6367 17.3643C14.6513 18.4179 15.0977 19.2787 16.1905 20.1674C16.6266 20.5221 17.2375 20.3899 17.9413 20.2704C19.5341 20 20.9594 19.6607 22.3292 19.1492C24.5567 18.3174 26.0659 16.8347 27.5378 15.6825C29.7026 13.9879 31.8393 12.2995 33.5015 10.4539C34.6757 9.15017 35.8289 7.88967 37.2001 6.63829C38.502 5.45007 39.4441 4.12221 40.833 2.97141C41.2203 2.6505 41.6252 2.33389 41.9272 1.98747C42.0857 1.80565 42.3868 1.23849 42.3868 1.4383C42.3868 2.12977 41.4055 2.93478 41.0299 3.58923C38.9945 7.13625 38.3651 10.835 36.5435 14.4011C34.8745 17.6685 32.6461 20.8276 31.0941 24.1146C29.9303 26.5797 27.651 28.8349 26.3013 31.2653C25.6906 32.365 25.0175 33.4858 24.2442 34.5489C24.0725 34.7849 23.1763 35.654 23.2265 35.6015C24.0163 34.7757 24.2255 33.7841 24.6819 32.9014C25.0454 32.1981 25.6335 31.544 26.1263 30.8649C26.7643 29.9854 27.1536 29.0674 27.8223 28.1934C28.9402 26.7323 30.0595 25.1997 30.8315 23.6799C32.5658 20.2657 32.8559 16.7612 33.5453 13.2627C34.1434 10.2272 34.4903 7.39736 32.4948 4.48164C32.1041 3.91081 31.0106 2.58484 29.4637 3.31464C27.4171 4.28019 26.3339 6.07219 25.8636 7.44489C24.5035 11.4149 25.1337 15.5112 27.5269 19.3322C28.1134 20.2686 28.8912 21.1601 29.6716 22.0552C30.3016 22.7778 30.8538 23.5841 31.8273 24.2061C32.6703 24.7448 35.0595 23.5405 35.7994 23.2565C38.3804 22.2661 41.0071 20.7408 42.343 19.2235C44.2663 17.0393 44.6602 14.3834 44.5753 12.0099C44.5427 11.0988 42.9413 12.4263 42.7151 12.6392C41.4172 13.8605 40.5091 15.4464 39.9357 16.8037C39.29 18.3322 39.2976 20.1892 39.9794 21.7005C40.2461 22.2916 40.6223 23.0026 41.402 23.4739C42.1788 23.9435 43.1118 23.1988 43.5686 22.9133C46.3967 21.1455 48.516 19.0415 49.7839 16.8381C50.4198 15.733 51.0382 14.6188 51.5128 13.4915C51.7406 12.9506 51.8852 12.5546 52.0052 12.0213C52.0462 11.8394 52.246 11.3578 51.9724 11.4722C51.5033 11.6684 51.1556 12.2384 50.9657 12.5133C50.3287 13.4355 50.2374 14.4183 50.0794 15.385C49.8757 16.6308 49.2602 17.8114 49.3024 19.0691C49.3261 19.7741 49.6723 21.4429 51.283 20.2304C52.1944 19.5443 52.5461 18.7752 52.9572 17.9822C53.2529 17.4118 53.5041 16.4369 54.1828 15.9456C54.5573 15.6745 54.3478 16.6089 54.4235 16.941C54.5425 17.4626 54.6637 17.9893 55.102 18.4684C55.4922 18.8949 55.9992 16.8394 55.9992 17.1927C55.9992 17.5022 55.7462 18.1787 56.5245 17.6904C57.5312 17.0589 58.6028 16.4293 60.0261 16.0486C63.2128 15.1963 67.3619 16.1454 70.7278 16.1745C74.9134 16.2106 79.3194 16.6302 83.4868 16.2546C84.541 16.1595 85.5133 15.9942 86.6054 15.917C87.496 15.8541 88.3896 15.7886 89.2863 15.7626C89.9842 15.7423 90.7077 15.6596 91.4529 15.6596" stroke="white" stroke-linecap="round"/>
</svg>
